<?xml version="1.0" encoding="UTF-8" standalone="no"?>
<svg
   xmlns:dc="http://purl.org/dc/elements/1.1/"
   xmlns:cc="http://creativecommons.org/ns#"
   xmlns:rdf="http://www.w3.org/1999/02/22-rdf-syntax-ns#"
   xmlns:svg="http://www.w3.org/2000/svg"
   xmlns="http://www.w3.org/2000/svg"
   version="1.1"
   id="svg2"
   viewBox="0 0 50.000001 49.999997"
   height="14.111111mm"
   width="14.111112mm">
  <defs
     id="defs4" />
  <metadata
     id="metadata7">
    <rdf:RDF>
      <cc:Work
         rdf:about="">
        <dc:format>image/svg+xml</dc:format>
        <dc:type
           rdf:resource="http://purl.org/dc/dcmitype/StillImage" />
        <dc:title></dc:title>
      </cc:Work>
    </rdf:RDF>
  </metadata>
  <g
     transform="translate(1.9669533e-6,-1002.3622)"
     id="layer1">
    <circle
       r="23.54726"
       cy="1027.3622"
       cx="24.999998"
       id="path3336"
       style="fill:#fbf4e9;fill-opacity:1;fill-rule:evenodd;stroke:#3f474c;stroke-width:2.90547967;stroke-linecap:butt;stroke-linejoin:miter;stroke-miterlimit:4;stroke-dasharray:none;stroke-opacity:1" />
    <path
       d="m 22.854699,1023.1941 -15.3932497,-4.2447 -15.3932501,-4.2447 11.3726309,-11.2086 11.3726309,-11.20862 4.020619,15.45332 z"
       id="path4138"
       style="fill:#ff0000;fill-opacity:0;stroke-width:5;stroke-miterlimit:4;stroke-dasharray:none" />
    <path
       d="m 24.748736,1034.1795 -11.5382,-2.051 -11.5381983,-2.051 7.5453032,-8.9669 7.5453031,-8.9668 3.992896,11.0178 z"
       id="path4140"
       style="fill:#ff0000;fill-opacity:0;stroke-width:5;stroke-miterlimit:4;stroke-dasharray:none" />
    <path
       d="m 36.807431,1029.8231 -10.501175,5.4315 -10.501175,5.4315 0.546761,-11.81 0.546762,-11.81 9.954413,6.3785 z"
       id="path4142"
       style="fill:#ff0000;fill-opacity:0;stroke-width:5;stroke-miterlimit:4;stroke-dasharray:none" />
    <path
       d="m 13.195117,1034.9371 10.219417,-9.3095 10.219418,-9.3094 2.95251,13.505 2.95251,13.505 -13.171927,-4.1956 z"
       id="path4144"
       style="fill:#ff0000;fill-opacity:0;stroke-width:5;stroke-miterlimit:4;stroke-dasharray:none" />
    <path
       id="path4146"
       d="m 13.495929,1013.538 -0.0293,13.8242 -0.0293,13.8242 11.560547,-6.8847 11.537109,-6.8731 0,13.7051 c 0,-0.081 0.01572,-6.9005 0.02344,-13.7188 0.0078,-6.8707 0.0074,-13.7411 -0.02344,-13.8242 l 0,13.8106 -11.507812,-6.9239 -11.53125,-6.9394 z"
       style="fill:#a3d49d;fill-opacity:1;stroke:#3f474c;stroke-width:2.63879204;stroke-linecap:round;stroke-linejoin:round;stroke-miterlimit:3;stroke-dasharray:none;stroke-opacity:1" />
  </g>
</svg>
